<svg xmlns="http://www.w3.org/2000/svg" width="120" height="120" viewBox="0 0 120 120" role="img" aria-label="FIG_001.C — agent loop returning to itself">
  <defs>
    
  </defs>

  <rect width="120" height="120" fill="#fafaf5"></rect>

  <text class="mono bp-fill" x="8" y="14" font-size="6.5" letter-spacing="1.5">FIG_001.C</text>

  
  <rect class="face-strong" x="46" y="52" width="28" height="20"></rect>
  <rect class="bp" x="46" y="52" width="28" height="20" stroke-width="1.5"></rect>
  <text class="mono bp-fill" x="60" y="65" font-size="6.5" letter-spacing="1.5" text-anchor="middle">LLM</text>

  
  <path class="bp" d="M 60 32 A 28 28 0 1 1 32 60" stroke-width="1.5"></path>
  <polyline class="bp" points="36,56 32,60 36,64" stroke-width="1.5"></polyline>

  
  <rect class="face" x="84" y="50" width="20" height="14"></rect>
  <rect class="bp" x="84" y="50" width="20" height="14" stroke-width="1.2"></rect>
  <text class="mono bp-fill" x="94" y="60" font-size="5.5" letter-spacing="1" text-anchor="middle">TOOL</text>

  
  <line class="bp" x1="74" y1="58" x2="84" y2="58" stroke-width="1.2"></line>
  <polyline class="bp" points="82,55 84,58 82,61" stroke-width="1.2"></polyline>
  <line class="bp" x1="84" y1="62" x2="74" y2="62" stroke-width="1.2"></line>
  <polyline class="bp" points="76,59 74,62 76,65" stroke-width="1.2"></polyline>

  
  <rect class="face" x="50" y="82" width="20" height="12"></rect>
  <rect class="bp" x="50" y="82" width="20" height="12" stroke-width="1.2"></rect>
  <text class="mono bp-fill" x="60" y="90" font-size="5.5" letter-spacing="1" text-anchor="middle">OBS</text>
  <line class="bp" x1="60" y1="72" x2="60" y2="82" stroke-width="1.2"></line>
  <polyline class="bp" points="57,80 60,82 63,80" stroke-width="1.2" fill="#fafaf5"></polyline>

  <text class="mono bp-fill" x="60" y="114" font-size="7" letter-spacing="1.5" text-anchor="middle">AGENT</text>
</svg>